<?xml version="1.0" standalone="no"?><svg xmlns="http://www.w3.org/2000/svg" viewBox="0 0 1440 320"><path fill="#f8f9fa" fill-opacity="1" d="M0,96L7.7,90.7C15.5,85,31,75,46,85.3C61.9,96,77,128,93,138.7C108.4,149,124,139,139,133.3C154.8,128,170,128,186,144C201.3,160,217,192,232,186.7C247.7,181,263,139,279,106.7C294.2,75,310,53,325,53.3C340.6,53,356,75,372,122.7C387.1,171,403,245,418,240C433.5,235,449,149,465,117.3C480,85,495,107,511,112C526.5,117,542,107,557,117.3C572.9,128,588,160,604,197.3C619.4,235,635,277,650,261.3C665.8,245,681,171,697,117.3C712.3,64,728,32,743,48C758.7,64,774,128,790,138.7C805.2,149,821,107,836,90.7C851.6,75,867,85,883,101.3C898.1,117,914,139,929,138.7C944.5,139,960,117,975,106.7C991,96,1006,96,1022,85.3C1037.4,75,1053,53,1068,69.3C1083.9,85,1099,139,1115,165.3C1130.3,192,1146,192,1161,192C1176.8,192,1192,192,1208,160C1223.2,128,1239,64,1254,64C1269.7,64,1285,128,1301,170.7C1316.1,213,1332,235,1347,208C1362.6,181,1378,107,1394,106.7C1409,107,1425,181,1432,218.7L1440,256L1440,320L1432.3,320C1424.5,320,1409,320,1394,320C1378.1,320,1363,320,1347,320C1331.6,320,1316,320,1301,320C1285.2,320,1270,320,1254,320C1238.7,320,1223,320,1208,320C1192.3,320,1177,320,1161,320C1145.8,320,1130,320,1115,320C1099.4,320,1084,320,1068,320C1052.9,320,1037,320,1022,320C1006.5,320,991,320,975,320C960,320,945,320,929,320C913.5,320,898,320,883,320C867.1,320,852,320,836,320C820.6,320,805,320,790,320C774.2,320,759,320,743,320C727.7,320,712,320,697,320C681.3,320,666,320,650,320C634.8,320,619,320,604,320C588.4,320,573,320,557,320C541.9,320,526,320,511,320C495.5,320,480,320,465,320C449,320,434,320,418,320C402.6,320,387,320,372,320C356.1,320,341,320,325,320C309.7,320,294,320,279,320C263.2,320,248,320,232,320C216.8,320,201,320,186,320C170.3,320,155,320,139,320C123.9,320,108,320,93,320C77.4,320,62,320,46,320C31,320,15,320,8,320L0,320Z"></path></svg>