<?xml version="1.0" standalone="no"?><svg xmlns="http://www.w3.org/2000/svg" viewBox="0 0 1440 320"><path fill="#f8f9fa" fill-opacity="1" d="M0,0L7.7,16C15.5,32,31,64,46,74.7C61.9,85,77,75,93,69.3C108.4,64,124,64,139,80C154.8,96,170,128,186,122.7C201.3,117,217,75,232,48C247.7,21,263,11,279,53.3C294.2,96,310,192,325,197.3C340.6,203,356,117,372,80C387.1,43,403,53,418,74.7C433.5,96,449,128,465,144C480,160,495,160,511,154.7C526.5,149,542,139,557,112C572.9,85,588,43,604,37.3C619.4,32,635,64,650,64C665.8,64,681,32,697,21.3C712.3,11,728,21,743,64C758.7,107,774,181,790,224C805.2,267,821,277,836,288C851.6,299,867,309,883,304C898.1,299,914,277,929,261.3C944.5,245,960,235,975,208C991,181,1006,139,1022,112C1037.4,85,1053,75,1068,74.7C1083.9,75,1099,85,1115,128C1130.3,171,1146,245,1161,261.3C1176.8,277,1192,235,1208,218.7C1223.2,203,1239,213,1254,213.3C1269.7,213,1285,203,1301,176C1316.1,149,1332,107,1347,80C1362.6,53,1378,43,1394,85.3C1409,128,1425,224,1432,272L1440,320L1440,320L1432.3,320C1424.5,320,1409,320,1394,320C1378.1,320,1363,320,1347,320C1331.6,320,1316,320,1301,320C1285.2,320,1270,320,1254,320C1238.7,320,1223,320,1208,320C1192.3,320,1177,320,1161,320C1145.8,320,1130,320,1115,320C1099.4,320,1084,320,1068,320C1052.9,320,1037,320,1022,320C1006.5,320,991,320,975,320C960,320,945,320,929,320C913.5,320,898,320,883,320C867.1,320,852,320,836,320C820.6,320,805,320,790,320C774.2,320,759,320,743,320C727.7,320,712,320,697,320C681.3,320,666,320,650,320C634.8,320,619,320,604,320C588.4,320,573,320,557,320C541.9,320,526,320,511,320C495.5,320,480,320,465,320C449,320,434,320,418,320C402.6,320,387,320,372,320C356.1,320,341,320,325,320C309.7,320,294,320,279,320C263.2,320,248,320,232,320C216.8,320,201,320,186,320C170.3,320,155,320,139,320C123.9,320,108,320,93,320C77.4,320,62,320,46,320C31,320,15,320,8,320L0,320Z"></path></svg>